# xmcd CD database file
#
# Track frame offsets:
#	150
#	20732
#	35545
#	48722
#	61182
#	85567
#	104252
#	118295
#	141135
#	157155
#	179350
#	192800
#	213587
#	230895
#	248900
#	272672
#	291070
#	311385
#
# Disc length: 4315 seconds
#
# Revision: 0
# Processed by: cddbd v1.4PL0 Copyright (c) Steve Scherf et al.
# Submitted via: CDex 1.50Beta6
#
DISCID=0c10d912
DTITLE=Le Petit Jazzband de Mr Morel - Delta Bound
DYEAR=1999
DGENRE=Jazz
TTITLE0=The Sophomore
TTITLE1=Delta Bound
TTITLE2=Bogalusa Strut
TTITLE3=Kansas City Breakdown
TTITLE4=Seeking Blues
TTITLE5=Ozark Mountain Blues
TTITLE6=You'll Long For Me
TTITLE7=I Wonder Where My Easy Rider's Gone
TTITLE8=Grandpa's Spells
TTITLE9=Yearning and Blue
TTITLE10=She's Cryin' For Me
TTITLE11=Louisville Blues
TTITLE12=Messin' Around
TTITLE13=Long Lost Mama
TTITLE14=Doin' the Shake
TTITLE15=Mean Blues
TTITLE16=The Black Sheep Blues
TTITLE17=Plantation Joys
EXTD=YEAR: 1999
EXTT0=
EXTT1=
EXTT2=
EXTT3=
EXTT4=
EXTT5=
EXTT6=
EXTT7=
EXTT8=
EXTT9=
EXTT10=
EXTT11=
EXTT12=
EXTT13=
EXTT14=
EXTT15=
EXTT16=
EXTT17=
PLAYORDER=
